<?xml version="1.0" ?><svg id="katman_1" style="enable-background:new 0 0 512 512;" version="1.1" viewBox="0 0 512 512" xml:space="preserve" xmlns="http://www.w3.org/2000/svg" xmlns:xlink="http://www.w3.org/1999/xlink"><style type="text/css">
	.st0{fill:#E84B3C;}
	.st1{fill:#C0392A;}
	.st2{fill:#FFFFFF;}
</style><g><g><circle class="st0" cx="256" cy="256" r="250"/></g><path class="st1" d="M505.7,267c-0.1-0.1-0.2-0.3-0.4-0.4c-42.7-42.6-85.3-85.3-128-127.9c-18.3-18.3-40.5-28.2-66.3-29.9   c-10.3-0.7-20.4,0.4-30.4,2.9c-41.3,10.5-72.2,45.7-76.3,89c-1.4,14.8,0.4,29.3,5.4,43.4c0.5,1.5,0.4,2.3-0.7,3.5   c-7.2,7.1-14.3,14.2-21.4,21.3c-1.9,1.9-2.8,4-2.8,6.6c0.1,4.2,0,8.5,0,12.7c0,2.4,0.3,2.4-2.3,2.4c-4.4,0-8.8,0-13.2,0   c-4.7,0-7.8,3.2-7.9,7.8c0,1.8-0.1,3.7,0,5.5c0,1.1-0.4,1.4-1.4,1.3c-1.7-0.1-3.4-0.1-5,0c-1.1,0-2.2,0-3.3,0.4   c-3.1,1.2-4.8,3.7-4.9,7.2c0,5.4,0,10.7,0,16.1c0,1.7,0,1.7-1.7,1.7c-5.2,0-10.4,0.1-15.6,0c-2.7-0.1-4.8,0.8-6.6,2.7   c-4.4,4.5-8.8,8.9-13.2,13.2c-2.2,2.1-3.1,4.4-3.1,7.5c0.1,13.8,0.1,27.5,0,41.3c0,3,1,5.3,3.1,7.4c18.3,18.2,36.6,36.5,54.8,54.8   c14.2,14.2,28.4,28.4,42.6,42.6c0.5,0.5,0.9,0.8,1.4,1.1c15.3,2.9,31.2,4.5,47.4,4.5C390.4,506,500,400,505.7,267z"/><g><path class="st2" d="M304.6,108.3c-55.9,0-101.4,45.5-101.4,101.4c0,12.4,2.2,24.5,6.6,36l-23.5,23.5c-1.4,1.4-2.2,3.3-2.2,5.2    v15.9h-15.9c-4.1,0-7.4,3.3-7.4,7.4v7.2h-7.2c-4.1,0-7.4,3.3-7.4,7.4v18.1h-18.1c-2,0-3.8,0.8-5.2,2.2l-14.7,14.7    c-1.4,1.4-2.2,3.3-2.2,5.2v43.7c0,4.1,3.3,7.4,7.4,7.4h53.1c2,0,3.8-0.8,5.2-2.2l97-97c11.5,4.4,23.5,6.6,36,6.6    c55.9,0,101.4-45.5,101.4-101.4S360.5,108.3,304.6,108.3z M304.6,123.1c47.8,0,86.6,38.9,86.6,86.6s-38.9,86.6-86.6,86.6    c-12.1,0-23.8-2.4-34.8-7.3c-2.8-1.2-6-0.6-8.1,1.5c0,0,0,0-0.1,0.1l-98.3,98.3H150l80.9-80.9c2.6-2.6,2.6-6.8,0-9.4    c-2.6-2.6-6.8-2.6-9.4,0l-90.3,90.3h-10.4v-33.3l10.4-10.4h22.4c4.1,0,7.4-3.3,7.4-7.4v-18.1h7.2c4.1,0,7.4-3.3,7.4-7.4v-7.2h15.9    c4.1,0,7.4-3.3,7.4-7.4v-20.2l24.8-24.8c0,0,0,0,0.1-0.1c2-2.1,2.7-5.3,1.5-8.1c-4.8-11-7.3-22.7-7.3-34.8    C218,162,256.8,123.1,304.6,123.1z"/><path class="st2" d="M283.1,189.8c-10.8,10.8-10.8,28.4,0,39.1c10.8,10.8,28.4,10.8,39.1,0s10.8-28.4,0-39.1    C311.4,179,293.9,179,283.1,189.8z M293.5,200.2c5-5,13.2-5,18.2,0c5,5,5,13.2,0,18.2s-13.2,5-18.2,0S288.5,205.3,293.5,200.2z"/></g></g></svg>